<svg xmlns="http://www.w3.org/2000/svg" viewBox="0 0 320 180" role="img" aria-label="Desert dunes">
  <defs>
    <linearGradient id="sky" x1="0" x2="0" y1="0" y2="1">
      <stop offset="0%" stop-color="#9fd6ff"/>
      <stop offset="100%" stop-color="#f5efe0"/>
    </linearGradient>
    <linearGradient id="duneA" x1="0" x2="1" y1="0" y2="1">
      <stop offset="0%" stop-color="#d19842"/>
      <stop offset="100%" stop-color="#a56222"/>
    </linearGradient>
    <linearGradient id="duneB" x1="0" x2="1" y1="0" y2="1">
      <stop offset="0%" stop-color="#efc165"/>
      <stop offset="100%" stop-color="#bf7a2c"/>
    </linearGradient>
  </defs>
  <rect width="320" height="180" fill="url(#sky)"/>
  <circle cx="255" cy="42" r="18" fill="#ffe29a"/>
  <path d="M0 122c37-9 64-28 106-28 42 0 63 16 99 16 27 0 56-14 115-14v84H0z" fill="url(#duneA)"/>
  <path d="M0 141c37 0 77-34 135-34 54 0 86 34 185 18v55H0z" fill="url(#duneB)"/>
  <path d="M69 141c41-8 82-48 128-33 18 6 32 15 46 31-43-10-69-7-103 2-21 6-49 8-71 0z" fill="#f6d17e" opacity="0.72"/>
</svg>

